<?xml version="1.0" encoding="UTF-8"?>
<svg xmlns="http://www.w3.org/2000/svg" xmlns:xlink="http://www.w3.org/1999/xlink" viewBox="0 0 165.66 88.94">
  <defs>
    <style>
      .cls-1 {
        fill: url(#Gradiente_sem_nome_5-2);
      }

      .cls-1, .cls-2, .cls-3, .cls-4 {
        stroke-width: 0px;
      }

      .cls-2 {
        fill: url(#Gradiente_sem_nome_5);
      }

      .cls-3 {
        fill: #1d1d1b;
      }

      .cls-4 {
        fill: #abdcec;
      }
    </style>
    <linearGradient id="Gradiente_sem_nome_5" data-name="Gradiente sem nome 5" x1="17.22" y1="1.28" x2="17.22" y2="76.65" gradientUnits="userSpaceOnUse">
      <stop offset="0" stop-color="#92d3e7"/>
      <stop offset="1" stop-color="#1e9ad2"/>
    </linearGradient>
    <linearGradient id="Gradiente_sem_nome_5-2" data-name="Gradiente sem nome 5" x1="57.42" y1="14.6" x2="57.42" y2="89.96" xlink:href="#Gradiente_sem_nome_5"/>
  </defs>
  <path class="cls-2" d="m34.45,3.48c0-2.97-3.56-4.61-5.72-2.58-.02.02-.03.03-.05.05L2.89,25.62c-1.85,1.77-2.89,4.21-2.89,6.77v35.55c0,5.17,4.19,9.37,9.37,9.37h21.63c1.9,0,3.44-1.54,3.44-3.44V3.48Z"/>
  <path class="cls-1" d="m71.75,37.26l-25.78-24.67s-.03-.03-.05-.05c-2.16-2.03-5.72-.39-5.72,2.58v70.38c0,1.9,1.54,3.44,3.44,3.44h21.63c5.17,0,9.37-4.19,9.37-9.37v-35.55c0-2.56-1.04-5-2.89-6.77Z"/>
  <path class="cls-4" d="m23.91,42.74c0-5.82,4.72-10.54,10.54-10.54V13.34c-16.23,0-29.39,13.16-29.39,29.39s13.16,29.39,29.39,29.39v-18.86c-5.82,0-10.54-4.72-10.54-10.54Z"/>
  <polygon class="cls-4" points="61.25 27.1 50.53 27.1 50.53 47.99 39.83 47.99 39.83 65.91 50.53 65.91 50.53 85.88 68.45 85.88 68.45 34.1 61.25 27.1"/>
  <g>
    <path class="cls-3" d="m90.3,38.74c3.01,0,5.52,1,7.55,3.01,2.03,2.01,3.04,4.48,3.04,7.41s-1.01,5.37-3.03,7.4c-2.02,2.02-4.49,3.04-7.4,3.04s-5.43-1.01-7.46-3.02c-2.03-2.02-3.04-4.46-3.04-7.32,0-1.91.46-3.68,1.38-5.31.92-1.63,2.18-2.9,3.78-3.83,1.59-.92,3.32-1.38,5.17-1.38Zm.09,1.93c-1.47,0-2.86.38-4.18,1.15-1.32.77-2.34,1.8-3.08,3.09s-1.11,2.74-1.11,4.34c0,2.36.82,4.35,2.45,5.98,1.64,1.63,3.61,2.44,5.92,2.44,1.54,0,2.97-.37,4.28-1.12s2.33-1.77,3.07-3.07c.73-1.3,1.1-2.74,1.1-4.32s-.37-3-1.1-4.28c-.73-1.27-1.77-2.29-3.1-3.06-1.33-.77-2.75-1.15-4.25-1.15Z"/>
    <path class="cls-3" d="m104.95,39.24h1.98v11.99c0,1.42.03,2.31.08,2.66.1.78.33,1.44.69,1.96.36.53.91.97,1.66,1.32s1.5.53,2.25.53c.66,0,1.29-.14,1.89-.42.6-.28,1.11-.67,1.51-1.16.4-.49.7-1.09.89-1.8.13-.5.2-1.54.2-3.1v-11.99h1.98v11.99c0,1.77-.17,3.21-.52,4.3-.35,1.09-1.04,2.05-2.08,2.86-1.04.81-2.3,1.21-3.77,1.21-1.6,0-2.97-.38-4.12-1.15-1.14-.77-1.91-1.78-2.29-3.04-.24-.77-.36-2.17-.36-4.19v-11.99Z"/>
    <path class="cls-3" d="m123.09,39.24h3.96c2.21,0,3.7.09,4.48.27,1.18.27,2.14.85,2.88,1.74.74.89,1.11,1.98,1.11,3.28,0,1.08-.25,2.03-.76,2.85-.51.82-1.24,1.44-2.18,1.86-.94.42-2.25.63-3.92.64l7.14,9.22h-2.46l-7.14-9.22h-1.12v9.22h-1.98v-19.86Zm1.98,1.94v6.75l3.42.03c1.33,0,2.31-.13,2.94-.38.64-.25,1.13-.65,1.49-1.21s.53-1.17.53-1.86-.18-1.27-.54-1.82c-.36-.54-.83-.93-1.42-1.17-.59-.23-1.56-.35-2.92-.35h-3.5Z"/>
  </g>
  <g>
    <path class="cls-3" d="m80.69,63.13h3.83v7.49h6.63v-7.49h3.82v19.86h-3.82v-8.71h-6.63v8.71h-3.83v-19.86Z"/>
    <path class="cls-3" d="m108.88,62.63c2.81,0,5.23,1.02,7.25,3.05,2.02,2.03,3.03,4.51,3.03,7.44s-1,5.35-2.99,7.36c-1.99,2.01-4.42,3.01-7.26,3.01s-5.46-1.03-7.43-3.09c-1.97-2.06-2.96-4.51-2.96-7.34,0-1.9.46-3.65,1.38-5.24.92-1.59,2.18-2.85,3.79-3.79s3.34-1.4,5.19-1.4Zm-.04,3.7c-1.84,0-3.38.64-4.64,1.92-1.25,1.28-1.88,2.9-1.88,4.87,0,2.2.79,3.93,2.37,5.21,1.23,1,2.63,1.5,4.22,1.5,1.79,0,3.32-.65,4.58-1.94,1.26-1.3,1.89-2.89,1.89-4.79s-.64-3.49-1.91-4.8c-1.27-1.31-2.82-1.96-4.64-1.96Z"/>
    <path class="cls-3" d="m122.59,63.13h3.79v12.84c0,1.11.1,1.89.29,2.35.19.46.51.83.96,1.1.45.27.98.41,1.61.41.67,0,1.24-.15,1.72-.46.48-.31.81-.69,1-1.17s.28-1.37.28-2.7v-12.37h3.79v11.84c0,2-.11,3.38-.34,4.16-.23.77-.65,1.52-1.29,2.24-.63.72-1.37,1.25-2.19,1.6-.83.35-1.79.52-2.89.52-1.44,0-2.69-.33-3.76-.99s-1.83-1.49-2.29-2.48c-.46-.99-.69-2.68-.69-5.04v-11.84Z"/>
    <path class="cls-3" d="m150.85,65.83l-2.8,2.47c-.98-1.37-1.98-2.05-3-2.05-.5,0-.9.13-1.22.4s-.47.56-.47.9.11.65.34.95c.31.4,1.23,1.25,2.77,2.55,1.44,1.21,2.32,1.97,2.62,2.28.77.77,1.31,1.51,1.63,2.22.32.71.48,1.48.48,2.32,0,1.63-.56,2.97-1.69,4.04-1.13,1.06-2.59,1.59-4.41,1.59-1.41,0-2.65-.35-3.7-1.04-1.05-.69-1.95-1.78-2.7-3.27l3.18-1.92c.96,1.75,2.06,2.63,3.3,2.63.65,0,1.19-.19,1.64-.57s.66-.81.66-1.31c0-.45-.17-.9-.5-1.35s-1.07-1.14-2.2-2.07c-2.16-1.76-3.56-3.12-4.19-4.08-.63-.96-.95-1.91-.95-2.87,0-1.38.52-2.56,1.57-3.54s2.35-1.48,3.89-1.48c.99,0,1.94.23,2.83.69s1.87,1.3,2.91,2.51Z"/>
    <path class="cls-3" d="m154.82,63.13h10.84v3.7h-7.09v3.59h7.09v3.63h-7.09v5.22h7.09v3.71h-10.84v-19.86Z"/>
  </g>
</svg>